<?xml version="1.0" standalone="no"?>
<!DOCTYPE svg PUBLIC "-//W3C//DTD SVG 20010904//EN"
 "http://www.w3.org/TR/2001/REC-SVG-20010904/DTD/svg10.dtd">
<svg version="1.0" xmlns="http://www.w3.org/2000/svg"
 width="500.000000pt" height="500.000000pt" viewBox="0 0 500.000000 500.000000"
 preserveAspectRatio="xMidYMid meet">

<g transform="translate(0.000000,500.000000) scale(0.100000,-0.100000)"
fill="#000000" stroke="none">
<path d="M2415 4134 c-156 -33 -236 -75 -340 -179 -202 -202 -231 -457 -86
-760 54 -112 155 -273 239 -379 82 -104 247 -266 270 -266 25 0 134 100 215
198 181 219 325 475 373 662 20 80 15 232 -11 305 -60 172 -181 306 -339 376
-86 37 -244 59 -321 43z m250 -263 c150 -74 236 -242 205 -400 -23 -123 -92
-216 -201 -273 -59 -31 -68 -33 -168 -33 -95 0 -112 3 -161 27 -81 40 -132 88
-168 160 -111 220 -17 459 213 540 79 28 198 19 280 -21z"/>
<path d="M1450 1830 c0 -164 15 -202 94 -235 75 -32 144 -13 193 52 27 35 28
41 31 175 l4 138 -36 0 -36 0 0 -131 0 -131 -29 -29 c-31 -31 -64 -36 -105
-18 -43 20 -56 64 -56 193 l0 116 -30 0 -30 0 0 -130z"/>
<path d="M1912 1773 l3 -188 30 0 c29 0 30 2 30 43 l0 42 58 0 57 0 22 -45
c19 -40 26 -45 55 -45 18 0 33 3 33 6 0 4 -12 28 -26 54 l-26 48 32 43 c28 39
31 50 27 92 -9 99 -66 137 -205 137 l-92 0 2 -187z m182 123 c35 -14 58 -58
53 -101 -4 -34 -48 -62 -109 -70 l-57 -7 -3 92 c-2 50 -1 94 1 96 10 9 84 3
115 -10z"/>
<path d="M2350 1770 l0 -190 83 0 c104 0 149 13 181 51 38 45 35 93 -9 134
-34 32 -34 33 -15 50 22 20 26 65 10 96 -19 35 -63 49 -160 49 l-90 0 0 -190z
m184 124 c23 -9 21 -61 -3 -74 -11 -5 -42 -10 -70 -10 l-51 0 0 45 0 45 54 0
c30 0 61 -3 70 -6z m26 -154 c26 -26 25 -46 -5 -75 -20 -21 -34 -25 -85 -25
l-60 0 0 60 0 60 65 0 c52 0 69 -4 85 -20z"/>
<path d="M2866 1878 c-21 -46 -42 -92 -47 -103 -4 -11 -24 -55 -44 -99 -19
-43 -35 -82 -35 -87 0 -5 14 -9 30 -9 23 0 33 6 42 25 11 24 15 25 104 25 90
0 92 0 98 -26 6 -21 11 -25 39 -22 18 2 32 6 32 9 0 19 -162 369 -171 369 -6
0 -28 -37 -48 -82z m101 -152 c7 -16 10 -32 7 -37 -3 -5 -32 -9 -66 -9 -70 0
-69 -1 -22 106 l26 59 21 -45 c11 -25 27 -58 34 -74z"/>
<path d="M3210 1770 l0 -190 30 0 30 0 0 121 0 121 92 -83 c51 -46 103 -96
116 -112 13 -15 33 -32 43 -38 18 -9 19 -3 19 181 l0 190 -30 0 -30 0 0 -115
c0 -63 -3 -115 -7 -115 -5 0 -34 25 -65 55 -32 30 -58 53 -58 51 0 -2 -28 25
-62 60 -33 35 -65 64 -70 64 -4 0 -8 -85 -8 -190z"/>
<path d="M3114 1406 c-47 -15 -99 -58 -121 -100 -8 -15 -15 -51 -16 -80 -1
-67 26 -122 82 -161 38 -27 51 -30 115 -30 52 0 79 5 99 18 25 16 27 22 27 92
l0 75 -65 0 c-63 0 -65 -1 -65 -25 0 -22 4 -25 35 -25 32 0 35 -2 35 -30 0
-78 -142 -62 -186 21 -43 84 18 189 110 189 25 0 57 -5 71 -12 22 -10 27 -9
40 8 20 27 19 32 -12 48 -43 21 -104 26 -149 12z"/>
<path d="M1294 1397 c-2 -7 -3 -91 -2 -187 l3 -175 30 0 c28 0 30 3 33 43 l3
42 57 0 58 0 19 -42 c17 -36 25 -44 53 -46 17 -2 32 0 32 4 0 3 -12 28 -27 55
l-26 49 20 23 c32 35 43 62 43 111 0 52 -34 100 -87 122 -43 18 -202 19 -209
1z m152 -34 c-3 -4 8 -12 26 -17 43 -14 63 -51 54 -99 -9 -49 -43 -71 -110
-72 l-51 0 -3 92 -3 92 43 4 c24 2 45 4 47 5 2 1 1 -1 -3 -5z"/>
<path d="M1732 1223 l3 -188 140 0 140 0 3 28 3 27 -110 0 -111 0 0 45 0 45
85 0 85 0 0 30 0 30 -85 0 -85 0 0 55 0 55 105 0 105 0 0 30 0 30 -140 0 -140
0 2 -187z"/>
<path d="M2152 1223 l3 -188 27 -3 c27 -3 27 -2 30 60 l3 63 83 3 c79 3 82 4
82 26 0 30 -16 36 -101 36 l-69 0 0 65 0 64 103 3 c101 3 102 3 102 28 l0 25
-133 3 -132 3 2 -188z"/>
<path d="M2540 1273 c0 -120 3 -142 20 -171 60 -98 210 -96 267 4 20 35 23 53
23 172 l0 132 -30 0 -30 0 -2 -127 c0 -71 -1 -134 -1 -141 1 -7 -1 -11 -4 -8
-3 3 -13 -4 -22 -15 -10 -12 -33 -23 -58 -26 -37 -5 -46 -2 -73 25 l-30 30 0
131 0 131 -30 0 -30 0 0 -137z"/>
<path d="M3440 1220 l0 -190 140 0 140 0 0 30 0 30 -110 0 -110 0 0 45 0 44
87 3 c86 3 88 3 88 28 0 25 -2 25 -87 28 l-88 3 0 54 0 55 110 0 110 0 0 30 0
30 -140 0 -140 0 0 -190z"/>
</g>
</svg>
